HIERARCHY
ROOT pelvis
{
  OFFSET 0 100 0
  CHANNELS 6 Xposition Yposition Zposition Zrotation Xrotation Yrotation
  JOINT pelvis_right_femur
  {
    OFFSET -10.78128 -3.44521 -0.5502486
    CHANNELS 3 Zrotation Xrotation Yrotation
    JOINT right_femur_tibia
    {
      OFFSET -0.8047443 -44.0398 -0.1307829
      CHANNELS 3 Zrotation Xrotation Yrotation
      JOINT right_tibia_foot
      {
        OFFSET 3.006224 -47.83518 -5
        CHANNELS 3 Zrotation Xrotation Yrotation
        End Site
        {
          OFFSET 0 -5 15
        }
      }
    }
  }
  JOINT pelvis_left_femur
  {
    OFFSET 10.78128 -3.44521 -0.5502486
    CHANNELS 3 Zrotation Xrotation Yrotation
    JOINT left_femur_tibia
    {
      OFFSET 0.8047443 -44.0398 -0.1307829
      CHANNELS 3 Zrotation Xrotation Yrotation
      JOINT left_tibia_foot
      {
        OFFSET -4.370144 -48.10324 -4.275266
        CHANNELS 3 Zrotation Xrotation Yrotation
        End Site
        {
          OFFSET 0 -5 15
        }
      }
    }
  }
  JOINT pelvis_spine1
  {
    OFFSET 0 6.468898 -3.129235
    CHANNELS 3 Zrotation Xrotation Yrotation
    JOINT spine1
    {
      OFFSET 0 23.15396 4.99043
      CHANNELS 3 Zrotation Xrotation Yrotation
      JOINT spine2
      {
        OFFSET 0 20.79997 -5.064912
        CHANNELS 3 Zrotation Xrotation Yrotation
        JOINT neck
        {
          OFFSET 0 14.38658 9.616178
          CHANNELS 3 Zrotation Xrotation Yrotation
          End Site
          {
            OFFSET 0 20 0
          }
        }
      }
      JOINT right_manubrium
      {
        OFFSET -5.722621 16.35077 3.967754
        CHANNELS 3 Zrotation Xrotation Yrotation
        JOINT right_clavicle
        {
          OFFSET -13.16364 1.694482 -4.693211
          CHANNELS 3 Zrotation Xrotation Yrotation
          JOINT right_humerus
          {
            OFFSET -28.5034 -0.3100689 -2.792744
            CHANNELS 3 Zrotation Xrotation Yrotation
            JOINT right_radius
            {
              OFFSET -25.15693 0.02248979 -1.271978
              CHANNELS 3 Zrotation Xrotation Yrotation
              End Site
              {
                OFFSET -15 0 0
              }
            }
          }
        }
      }
      JOINT left_manubrium
      {
        OFFSET 5.722621 16.35077 3.967754
        CHANNELS 3 Zrotation Xrotation Yrotation
        JOINT left_clavicle
        {
          OFFSET 13.16364 1.694482 -4.693211
          CHANNELS 3 Zrotation Xrotation Yrotation
          JOINT left_humerus
          {
            OFFSET 29.39168 -1.063119 -2.237045
            CHANNELS 3 Zrotation Xrotation Yrotation
            JOINT left_radius
            {
              OFFSET 24.59957 -0.9528479 0.9047498
              CHANNELS 3 Zrotation Xrotation Yrotation
              End Site
              {
                OFFSET 15 -0 -0
              }
            }
          }
        }
      }
    }
  }
}
MOTION
Frames: 23
Frame Time: 0.0416666666667
0 103.5113 0 3.166069 -3.031504 -0.01734103 -1.123522 -7.94398 8.893648 -0 35.64169 -0 -12.3367 -16.02916 -1.651166 -10.00575 10.10835 -23.45464 -0 8.156844 -0 5.956463 -18.32215 26.51175 -3.409008 -6.408799 5.854867 1.273793 9.088176 -6.393828 -1.709685 23.47877 8.04423 3.138011 -22.73183 7.246037 3.106241 -18.92605 12.21984 89.93284 38.93179 -21.31563 -0 0 15.76337 -8.082142 8.613735 3.251606 1.716345 -16.6466 -3.998877 -97.77803 40.77289 28.39326 0 0 -21.0075 -6.176563 18.86313 25.99605
0.3468495 103.5105 1.304382 2.419719 -2.934657 -0.04725523 0.5318103 -11.53345 9.823006 -0 39.79814 -0 -12.24864 -15.09546 -2.805127 -9.518783 10.99194 -23.19503 -0 8.158624 -0 5.814902 -19.26 26.39209 -3.013927 -5.553436 5.29719 1.294243 9.151534 -6.684171 -1.534288 23.3335 8.145719 3.170475 -23.59754 7.668145 2.994503 -18.99461 11.85083 89.69122 38.51803 -21.07022 -0 0 16.05475 -8.504603 8.690357 3.445851 1.500518 -16.29108 -4.08913 -97.46748 40.54546 28.30296 0 0 -20.63416 -5.819878 19.09748 25.92384
0.6201111 103.5428 2.875255 1.673084 -2.654227 -0.128007 2.226691 -15.38846 10.21532 -0 41.52515 -0 -12.07665 -14.00061 -3.576483 -8.885705 11.79348 -22.80367 -0 8.020962 -0 5.555119 -20.17772 26.08428 -2.711479 -4.838618 4.817209 1.412862 8.982908 -6.970815 -1.218488 22.9072 8.198932 3.291337 -24.63103 8.127721 2.807235 -19.03214 11.5544 89.58319 38.10579 -20.98103 -0 0 16.28251 -8.887144 8.780048 3.654672 1.473697 -16.0239 -4.137882 -96.96632 40.23463 27.90998 0 0 -20.49626 -5.407259 19.17859 25.66738
0.8460597 103.5118 4.461312 1.002565 -2.053155 -0.3014385 3.650898 -19.454 10.07855 -0 40.41505 -0 -11.76615 -12.62548 -3.857929 -8.270348 12.35941 -22.26096 -0 7.770427 -0 5.205044 -21.12428 25.56791 -2.585624 -3.913139 4.489559 1.673858 8.82443 -7.194267 -0.9381996 22.42969 8.227977 3.396931 -25.64793 8.515836 2.632025 -18.81541 11.35161 89.77927 37.72999 -21.31453 -0 0 16.10509 -9.117932 8.90818 3.75177 1.736586 -16.18336 -4.165152 -95.96554 39.90605 26.80371 0 0 -20.84567 -4.801387 19.18727 25.15563
1.103236 103.2825 6.370547 0.5101092 -1.250203 -0.493242 4.841276 -23.41219 9.665426 -0 36.86263 -0 -11.34506 -11.07713 -3.649736 -7.846317 12.88415 -21.56953 -0 7.567444 -0 4.810108 -22.14895 24.82956 -2.604138 -3.184462 4.307701 2.056458 8.581101 -7.336418 -0.6965856 21.98175 8.228336 3.480814 -26.56173 8.824316 2.457589 -18.53483 11.22414 90.08571 37.40319 -21.82572 -0 0 15.65363 -9.241137 9.071895 3.781446 2.289292 -16.66275 -4.155616 -94.58609 39.52189 25.13833 0 0 -21.64904 -4.026985 19.1155 24.39424
1.32126 102.853 8.722094 0.212648 -0.3455862 -0.5436603 5.808817 -27.1667 9.161823 -0 31.68217 -0 -10.93619 -9.361197 -3.033244 -7.615791 13.4689 -20.76639 -0 7.573038 -0 4.346823 -23.18889 23.85614 -2.869048 -2.611504 4.268742 2.50197 8.39121 -7.361565 -0.4624828 21.46967 8.167888 3.543667 -27.45873 9.0391 2.296916 -18.03355 11.14844 90.56141 37.08475 -22.55483 -0 0 14.98405 -9.285023 9.267458 3.773519 3.135208 -17.32327 -4.102442 -92.96942 39.03896 23.14424 0 0 -22.7788 -3.173388 18.90777 23.41494
1.525332 102.1834 11.38811 0.08870116 0.5939947 -0.4269469 6.480155 -30.40774 8.572754 -0 25.83923 -0 -10.71082 -7.571633 -2.288263 -7.554174 14.08218 -19.86574 -0 7.880336 -0 3.793871 -24.1787 22.62207 -3.146828 -2.205585 4.293116 2.842306 8.239858 -7.307036 -0.2768776 21.26663 8.011088 3.55239 -28.08423 9.09014 2.172528 -17.52131 10.98392 91.10295 36.77304 -23.35966 -0 0 14.19301 -9.297356 9.483659 3.761356 3.972572 -18.36021 -3.731595 -91.13742 38.40705 20.87828 0 0 -23.93984 -2.234713 18.58483 22.34137
1.738444 101.3445 14.31028 -0.1021511 1.561922 -0.04833126 6.856691 -33.30675 8.071872 -0 20.38106 -0 -10.80593 -6.078908 -1.581936 -7.412251 14.62542 -18.86325 -0 8.522049 -0 3.105277 -25.04493 21.11804 -3.255713 -1.529773 4.084474 3.11208 8.207732 -7.393863 -0.1426278 21.06587 7.835305 3.520324 -28.64708 9.062379 2.13591 -17.22538 10.82071 91.48441 36.49993 -23.98009 -0 0 13.43512 -9.337728 9.71489 3.803144 4.593211 -19.30436 -3.30413 -89.44878 37.57203 18.80825 0 0 -24.97016 -1.290623 18.12297 21.2293
1.947158 100.4513 17.69436 -0.217033 2.503591 0.7372262 7.226463 -35.52388 7.543738 -0 16.42743 -0 -11.09004 -4.832567 -1.261625 -7.219285 15.345 -17.58319 -0 9.600178 -0 2.130799 -25.54 19.24352 -3.256331 -1.074305 3.580651 3.369735 7.942233 -7.732848 -0.2246534 20.91051 7.905688 3.429036 -29.10063 9.155286 2.106345 -16.94794 10.52204 91.7841 36.24198 -24.52796 -0 0 12.68309 -9.425686 9.959862 3.900458 5.209534 -20.44277 -2.97159 -87.7066 36.67451 16.70851 0 0 -26.05696 -0.2797458 17.73704 20.16684
2.144633 99.58459 21.76169 -0.6571992 3.281204 1.639834 7.793886 -36.52709 7.315489 -0 15.09353 -0 -11.69296 -3.828279 -1.237199 -6.68503 15.979 -16.42485 -0 11.92171 -0 0.8148543 -25.35259 17.21753 -2.920985 -0.7128167 2.944157 3.642253 7.833589 -8.170459 -0.2626011 20.75522 8.062948 3.41611 -29.43199 9.373021 2.111296 -16.7259 10.15779 91.96963 36.00618 -24.98891 -0 0 11.94268 -9.592899 10.21435 4.0641 5.514889 -21.26523 -2.657301 -86.59868 35.67326 15.33232 0 0 -26.64988 0.5051273 17.14941 19.25057
2.303967 98.95409 26.6248 -1.443708 3.860688 2.716711 8.426886 -35.71413 7.265048 -0 16.53612 -0 -12.57598 -3.093315 -1.560132 -5.909268 15.95288 -15.34037 -0 16.12206 -0 -0.9090862 -23.85645 15.17852 -2.215904 -0.5565698 2.348162 3.929565 7.771394 -8.644531 -0.2120564 20.42297 8.153726 3.442986 -29.78554 9.551157 2.195846 -16.43912 9.807958 92.18545 35.78711 -25.42295 -0 0 11.17439 -9.830591 10.48521 4.271114 5.492691 -21.59076 -2.321581 -86.3498 34.64856 14.93897 0 0 -26.61926 1.011554 16.37753 18.50683
2.530479 99.1293 32.25421 -2.236191 4.15923 3.596157 9.236344 -34.26644 7.34066 -0 18.95745 -0 -13.64206 -2.711979 -2.118084 -5.263275 15.68235 -13.96602 -0 22.23231 -0 -3.007597 -20.44306 13.10285 -1.306046 -0.3048217 1.797469 4.170352 7.749013 -9.077093 -0.2406331 19.96212 8.187286 3.380123 -30.18432 9.567157 2.453335 -16.21034 9.637673 92.25362 35.61608 -25.66327 -0 0 10.49339 -10.11982 10.77631 4.510097 5.211221 -21.75036 -2.069367 -86.69381 33.69348 15.15123 0 0 -26.16652 1.369549 15.60955 17.9354
2.902541 99.55534 37.9667 -2.811127 4.361811 4.267497 9.723425 -32.16647 7.560568 -0 20.57924 -0 -14.56874 -2.963145 -2.569492 -4.527729 14.77228 -12.93437 -0 28.50287 -0 -5.271218 -15.72589 10.9143 -0.1377611 -0.2767108 1.516937 4.15297 7.620978 -9.159464 -0.4670972 19.57843 8.192712 3.154678 -30.33708 9.350325 2.455554 -15.85701 9.795026 92.30527 35.45571 -25.60679 -0 0 10.12466 -10.51076 11.07996 4.90289 4.986884 -21.76812 -2.069076 -87.43872 32.82503 15.68408 0 0 -25.47314 1.609741 14.84827 17.51616
3.315122 100.4145 43.91618 -3.088766 4.121108 4.034394 10.0719 -28.46385 7.595457 -0 21.01685 -0 -15.37392 -4.239583 -2.871676 -4.534345 12.23735 -12.14506 -0 37.28126 -0 -6.790393 -10.21201 9.221639 0.5903257 -0.06189118 1.859837 3.960596 7.721126 -8.845071 -0.4667487 19.21146 8.110414 3.050878 -30.48131 9.216408 2.615288 -15.8326 10.16004 92.04415 35.389 -24.98475 -0 0 10.02247 -10.97687 11.40938 5.383526 4.532344 -21.45087 -2.085653 -88.46929 31.9846 16.89492 0 0 -24.34563 1.715503 14.11627 17.25114
3.780812 101.5767 49.83544 -2.521636 2.967148 3.209015 9.461571 -23.02889 7.050107 -0 20.22923 -0 -15.86705 -5.966592 -2.924185 -4.667554 7.173241 -11.26471 -0 47.10644 -0 -7.519749 -5.779029 8.416221 0.6630361 0.521656 3.022688 3.462377 8.07104 -8.014845 -0.4345771 19.21735 7.885501 2.970432 -30.45093 8.887525 2.931015 -16.11439 10.61932 91.32565 35.39911 -23.77902 -0 0 10.17537 -11.61136 11.71638 5.965649 3.925676 -21.15358 -1.898063 -89.54972 31.05865 18.35232 0 0 -23.20655 1.798828 13.43085 17.0256
4.268373 102.7476 55.77696 -1.655962 1.660583 2.706977 8.147555 -16.82589 6.214077 -0 18.37605 -0 -15.95192 -7.79943 -2.673801 -4.875328 0.9471368 -10.06722 -0 55.33305 -0 -8.131809 -3.174151 8.270824 0.2636439 1.030282 4.415326 3.027972 8.414497 -7.147846 -0.2670343 19.39587 7.445835 2.954934 -30.23699 8.325388 3.162922 -16.46707 10.92075 90.25486 35.38596 -22.23203 -0 0 10.52202 -12.52025 11.9504 6.672802 3.653282 -20.93692 -1.607245 -90.48162 30.19329 19.8253 0 0 -22.19445 1.826441 12.80571 16.79725
4.728631 104.1871 61.3417 -0.1768534 0.4063169 2.209099 6.15016 -10.467 5.17172 -0 15.68614 -0 -15.58218 -9.351765 -2.196601 -4.646958 -6.204525 -9.541281 -0 60.25611 -0 -7.385794 -3.765413 8.366517 -0.8126873 1.643959 5.907565 2.409081 8.817721 -6.327517 -0.07152848 19.8451 6.877196 2.967558 -29.72998 7.54957 3.366008 -17.2636 11.18278 88.62435 35.32085 -19.96806 -0 0 11.29956 -13.8414 12.041 7.584269 3.594016 -20.77459 -1.253783 -91.25682 29.39458 21.35237 0 0 -21.25042 1.762375 12.2355 16.57516
5.142965 105.2617 66.88754 1.089785 -0.6595149 2.023807 4.441466 -4.290858 4.219533 -0 12.80323 -0 -14.88098 -10.71319 -1.614283 -3.901425 -13.72652 -8.82237 -0 59.71158 -0 -6.083584 -5.277129 9.421508 -1.783169 2.088463 7.130747 1.778894 9.142182 -5.627942 0.1417951 20.22406 6.330969 2.990153 -29.03764 6.8142 3.286857 -18.25911 11.41715 86.72052 35.13784 -17.18575 -0 0 12.55658 -15.43876 11.99769 8.649245 3.809441 -20.5203 -0.9659064 -91.94963 28.65222 22.89264 0 0 -20.40132 1.61415 11.70929 16.37669
5.522443 105.5442 72.29008 1.570188 -0.9537927 2.254351 3.587713 0.8756892 3.403824 -0 10.06291 -0 -13.98668 -12.10849 -1.069629 -2.364479 -19.66008 -7.135504 -0 53.55525 -0 -5.360838 -5.890422 11.46273 -2.16749 2.038891 7.892484 1.252972 9.178785 -5.053168 0.3314607 20.47748 5.874121 2.999484 -28.1758 6.198112 2.800077 -19.46928 11.61752 84.4161 34.79251 -13.94996 -0 0 14.31655 -17.27107 11.81377 9.850015 4.254431 -20.15189 -0.7941396 -92.49486 27.96138 24.23453 0 0 -19.64451 1.384985 11.17861 16.18614
6.022206 105.2857 77.6885 1.655719 -1.115242 2.168324 3.203464 5.472872 2.686852 -0 8.145976 -0 -12.97339 -13.62321 -0.6036039 -0.3360207 -24.43155 -5.328518 -0 45.18587 -0 -4.741382 -5.385683 13.39311 -2.080817 1.788075 8.242514 0.8295632 9.355229 -4.648228 0.3622504 20.61602 5.650963 2.951552 -27.31751 5.791296 2.369477 -20.48005 11.66118 82.40869 34.26542 -10.96907 -0 0 16.19889 -19.11718 11.56661 11.04152 4.49034 -19.69193 -0.6831513 -92.91709 27.3142 25.4812 0 0 -18.6563 1.142027 10.68412 16.04399
6.522953 104.3312 83.22686 1.185724 -1.033587 2.4345 3.495721 9.296194 2.050887 -0 7.317021 -0 -11.8708 -15.22514 -0.2197527 1.763944 -27.49255 -3.007528 -0 34.58428 -0 -4.241706 -4.631742 15.2182 -1.572774 1.354578 8.256371 0.4877062 9.388844 -4.427195 0.4271159 20.72386 5.539046 2.943593 -26.42873 5.587988 1.769893 -21.7469 11.63325 80.11861 33.60365 -7.824138 -0 0 18.37518 -21.2699 11.31255 12.36166 4.594789 -19.22338 -0.6407565 -93.19546 26.73765 26.56423 0 0 -17.36858 0.9013999 10.21233 16.00411
7.242476 103.0097 88.8509 0.6134678 -0.9345604 2.834678 3.859328 12.40182 1.521937 -0 7.917328 -0 -10.6525 -16.51463 0.1545066 3.250831 -29.55918 -0.9154039 -0 23.97687 -0 -3.511759 -4.568055 16.31358 -0.9750132 1.027811 8.003514 0.2973913 9.49508 -4.476644 0.5073072 20.67707 5.517546 2.958644 -25.67349 5.533894 1.355458 -22.73631 11.44913 78.33582 32.79423 -5.275923 -0 0 20.34687 -23.28321 11.0231 13.54095 4.447386 -18.79196 -0.7349254 -93.44172 26.21124 27.45343 0 0 -15.9204 0.628649 9.741615 16.06032
8.18277 101.7263 94.79075 0.2787219 -0.6645313 2.597311 3.64442 14.84563 1.265028 -0 9.954346 -0 -9.271545 -16.88598 0.701588 3.132125 -30.51248 -0.689262 -0 16.14414 -0 -2.871844 -4.8624 16.00198 -0.6419593 0.7180344 8.035511 0.06445185 9.43678 -4.381531 0.6031268 20.49579 5.540215 3.003834 -25.11434 5.552423 1.198799 -23.6101 11.36198 76.87808 31.9295 -3.292579 -0 0 21.87017 -24.92776 10.79141 14.47447 4.089287 -18.44667 -0.8875989 -93.65052 25.75533 28.12049 0 0 -14.38809 0.2975883 9.262384 16.23636
